<svg xmlns="http://www.w3.org/2000/svg" data-name="Layer 1" viewBox="0 0 128 160" x="0px" y="0px"><title>Miscellaneous 436_expandline</title><path d="M62,19.73669v34.2179c.45679.25494.90881.50873,1.37646.76709.20221.11169.41571.23376.62054.34723.20874-.11554.42047-.2334.62653-.34723.46765-.25836.91968-.51215,1.37646-.76709V19.73669a8,8,0,1,0-4,0ZM64,8a4,4,0,1,1-4,4A4.00458,4.00458,0,0,1,64,8Z"/><path d="M67.2973,83.16467c.24426.17407,2.4845,1.76855,3.3183,2.38879,3.19562-2.9386,5.67047-6.51215,5.358-11.18433a14.24028,14.24028,0,0,0-4.73407-9.59454c-.27148.15045-2.78015,1.54626-3.66608,2.06262,2.47119,2.08014,4.19,4.52356,4.40894,7.79852C72.20886,78.01874,70.13159,80.72552,67.2973,83.16467Z"/><path d="M59.96387,57.40057A45.685,45.685,0,0,1,54.146,53.71631a16.98282,16.98282,0,0,0-2.50342-19.90186,4.00171,4.00171,0,0,0-6.81592,1.59082,19.78651,19.78651,0,0,0,5.084,19.92969,33.39377,33.39377,0,0,0,6.37567,4.5719A43.145,43.145,0,0,1,59.96387,57.40057Zm-8.82861-6.68719A16.04008,16.04008,0,0,1,48.6748,36.49609,12.66722,12.66722,0,0,1,51.13525,50.71338Z"/><path d="M62,78.9021a22.72707,22.72707,0,0,0,1.99518,1.79205A23.10858,23.10858,0,0,0,66,78.9021v-8.066a15.77726,15.77726,0,0,0-2.00458-1.706A15.533,15.533,0,0,0,62,70.83606Z"/><path d="M64.00183,95.587c-.75055.57751-1.95447,1.72467-2.00183,1.77728V122a2,2,0,0,0,4,0V97.36389C65.95264,97.31128,64.75305,96.1651,64.00183,95.587Z"/><path d="M56.29639,91.73682a16.3763,16.3763,0,0,0-4.58008,12.94141A16.05562,16.05562,0,0,0,58,115.47888v-5.699a11.19154,11.19154,0,0,1-2.30908-5.55139,12.39394,12.39394,0,0,1,3.52539-9.7583,16.00177,16.00177,0,0,1,1.42242-1.31543c-1.062-.75134-2.17816-1.55457-3.29749-2.42322C56.975,91.063,56.61578,91.39563,56.29639,91.73682Z"/><path d="M80.24463,32.60547a4.00374,4.00374,0,0,0-3.88721,1.209A16.98262,16.98262,0,0,0,73.854,53.71631a55.83452,55.83452,0,0,1-7.29639,4.50635c-6.54687,3.6167-13.96729,7.71582-14.53125,16.14648-.49854,7.45508,6.09814,12.11426,11.39893,15.85742a37.26323,37.26323,0,0,1,5.3584,4.24365,12.39394,12.39394,0,0,1,3.52539,9.7583A11.22567,11.22567,0,0,1,70,109.78821v5.69067a16.05562,16.05562,0,0,0,6.28369-10.80066,16.3763,16.3763,0,0,0-4.58008-12.94141A39.71124,39.71124,0,0,0,65.73242,86.959c-4.94775-3.49414-10.064-7.10693-9.71484-12.32324.418-6.252,6.27441-9.48682,12.47412-12.91162,3.42139-1.88965,6.959-3.84375,9.59814-6.38916a19.78678,19.78678,0,0,0,5.0835-19.9292A3.985,3.985,0,0,0,80.24463,32.60547ZM76.86475,50.71338a12.69423,12.69423,0,0,1,2.457-14.228A16.04731,16.04731,0,0,1,76.86475,50.71338Z"/><path d="M58.00285,26.5603V22.54443c-6.41266-.87885-9.93817-6.3277-11.76709-10.78125a6.095,6.095,0,0,0-3.42139-3.35547,5.92181,5.92181,0,0,0-4.71875.166C24.59025,14.96094,10.849,16.39014,3.85978,16.67383a3.97322,3.97322,0,0,0-3.562,2.50342,3.93593,3.93593,0,0,0,.80566,4.2373c3.96222,4.164,12.973,11.94983,24.92639,12.05426a11.40984,11.40984,0,0,0,3.37195,6.915c2.59991,2.572,6.39642,4.06409,11.28461,4.48157a24.13435,24.13435,0,0,1-.59918-4.07916c-8.92932-1.12061-9.94891-6.39264-10.06622-7.57178a31.143,31.143,0,0,0,8.8808-2.62262,2.00021,2.00021,0,0,0-1.6709-3.63477,25.16871,25.16871,0,0,1-22.2243-.09338,59.47161,59.47161,0,0,0,18.77362-4.02576,2,2,0,1,0-1.55469-3.68555c-10.29395,4.34131-22.40191,3.85558-23.4339,3.84192A42.63555,42.63555,0,0,1,4.02189,20.6709c7.293-.29639,21.63915-1.7915,35.78417-8.481a2.04355,2.04355,0,0,1,2.7295,1.09228C47.625,26.25,57.92485,26.56024,58.00285,26.5603Z"/><path d="M69.99715,26.5603V22.54443c6.41266-.87885,9.93817-6.3277,11.76709-10.78125a6.095,6.095,0,0,1,3.42139-3.35547,5.92181,5.92181,0,0,1,4.71875.166c13.50537,6.38721,27.24658,7.81641,34.23584,8.1001a3.9963,3.9963,0,0,1,2.75635,6.74072c-3.96222,4.164-12.973,11.94983-24.92639,12.05426a11.40984,11.40984,0,0,1-3.37195,6.915c-2.59991,2.572-6.39642,4.06409-11.28461,4.48157a24.13435,24.13435,0,0,0,.59918-4.07916c8.92932-1.12061,9.94891-6.39264,10.06622-7.57178a31.143,31.143,0,0,1-8.8808-2.62262,2.00021,2.00021,0,0,1,1.6709-3.63477,25.16871,25.16871,0,0,0,22.2243-.09338,59.47161,59.47161,0,0,1-18.77362-4.02576,2,2,0,1,1,1.55469-3.68555c10.29395,4.34131,22.40191,3.85558,23.4339,3.84192a42.63556,42.63556,0,0,0,4.76971-4.32336c-7.293-.29639-21.63915-1.7915-35.78417-8.481a2.04355,2.04355,0,0,0-2.7295,1.09228C80.375,26.25,70.07515,26.56024,69.99715,26.5603Z"/><text x="0" y="143" fill="#000000" font-size="5px" font-weight="bold" font-family="'Helvetica Neue', Helvetica, Arial-Unicode, Arial, Sans-serif">Created by WEBTECHOPS LLP</text><text x="0" y="148" fill="#000000" font-size="5px" font-weight="bold" font-family="'Helvetica Neue', Helvetica, Arial-Unicode, Arial, Sans-serif">from the Noun Project</text></svg>